<?xml version="1.0" encoding="UTF-8"?> <svg xmlns="http://www.w3.org/2000/svg" width="306" height="81" viewBox="0 0 306 81" fill="none"> <path fill-rule="evenodd" clip-rule="evenodd" d="M114.386 17.0563C114.359 17.2053 114.142 17.2052 114.114 17.0564L111.232 1.45098C111.22 1.38629 111.162 1.33921 111.096 1.33921H105.505C105.442 1.33921 105.387 1.38089 105.371 1.44013L100.014 21.1888C99.9901 21.275 100.056 21.3599 100.147 21.3599H103.892C103.956 21.3599 104.011 21.3173 104.026 21.2563L108.075 5.04473C108.11 4.9027 108.317 4.90838 108.345 5.05237L111.407 21.2486C111.419 21.3131 111.477 21.3599 111.543 21.3599H116.962C117.029 21.3599 117.087 21.3129 117.098 21.2482L120.107 4.9222C120.134 4.77749 120.343 4.77158 120.378 4.91464L124.37 21.2558C124.385 21.3167 124.441 21.3599 124.504 21.3599H128.167C128.258 21.3599 128.324 21.275 128.3 21.1888L122.943 1.44013C122.927 1.38089 122.872 1.33921 122.809 1.33921H117.382C117.315 1.33921 117.258 1.38651 117.246 1.4513L114.386 17.0563H114.386ZM149.123 19.4169C146.831 21.3405 143.633 21.9536 140.694 21.9536C138.289 21.9536 135.879 21.5342 133.808 20.3733C132.656 19.7273 131.707 18.9259 130.916 17.8743C129.471 15.954 128.938 13.7435 128.938 11.3498C128.938 9.58253 129.221 8.01187 129.805 6.65105C130.384 5.28417 131.199 4.13316 132.255 3.20925C133.306 2.28853 134.557 1.60388 135.997 1.1503C137.431 0.698377 138.998 0.475586 140.694 0.475586C142.391 0.475586 143.961 0.707923 145.397 1.17939C146.834 1.65117 148.082 2.34403 149.132 3.263C150.187 4.18619 151.002 5.32714 151.581 6.67685C152.165 8.03643 152.449 9.589 152.449 11.3227C152.449 14.4165 151.582 17.3547 149.123 19.4169H149.123ZM146.37 16.6813C147.903 15.3225 148.456 13.3823 148.456 11.4036C148.456 6.74669 145.346 3.97581 140.694 3.97581C137.454 3.97581 134.683 5.19162 133.468 8.18016C133.115 9.09244 132.931 10.1634 132.931 11.4036C132.931 12.5862 133.114 13.6095 133.464 14.4836C133.835 15.3455 134.345 16.0661 134.99 16.6541C135.656 17.2268 136.462 17.6757 137.417 17.9957C138.394 18.2984 139.485 18.4536 140.694 18.4536C142.662 18.4536 144.858 18.0168 146.37 16.6813H146.37ZM173.994 1.33929C174.07 1.33929 174.132 1.40022 174.132 1.47541V21.224C174.132 21.2991 174.07 21.3601 173.994 21.3601H170.441C170.365 21.3601 170.303 21.2991 170.303 21.224V14.5854C170.303 14.5103 170.241 14.4493 170.165 14.4493H161.281C161.231 14.4493 161.185 14.4757 161.161 14.5182L157.266 21.2642C157.241 21.3066 157.195 21.3327 157.145 21.3327H153.045C152.939 21.3327 152.873 21.2193 152.926 21.1287L157.128 13.9735C157.17 13.9021 157.138 13.811 157.062 13.7778C154.861 12.8248 153.836 11.1042 153.583 8.87199C153.345 6.76828 153.879 4.51315 155.523 3.05071C156.174 2.47002 156.95 2.04518 157.842 1.77118C158.73 1.48073 159.704 1.33921 160.759 1.33921H173.993L173.994 1.33929ZM157.52 7.92158C157.52 8.97375 157.835 9.69135 158.393 10.1699C158.977 10.6713 159.782 10.9494 160.869 10.9494H170.165C170.241 10.9494 170.303 10.8884 170.303 10.8133V4.97571C170.303 4.90063 170.241 4.83967 170.165 4.83967H160.869C158.877 4.83967 157.52 5.89769 157.52 7.92158Z" fill="url(#paint0_linear_1575_330)"></path> <path fill-rule="evenodd" clip-rule="evenodd" d="M122.201 51.1518C122.201 51.227 122.263 51.2879 122.34 51.2879H125.892C125.968 51.2879 126.03 51.227 126.03 51.1518V44.5135C126.03 44.4384 126.092 44.3775 126.168 44.3775H135.492C136.524 44.3775 137.475 44.255 138.34 44.0034C139.208 43.751 139.965 43.3676 140.598 42.8453C141.257 42.3167 141.766 41.6401 142.128 40.8291C142.492 40.0132 142.685 39.0768 142.724 38.032L142.724 38.0217V38.0116C142.724 36.9294 142.551 35.9549 142.189 35.1001C141.849 34.2559 141.354 33.5442 140.7 32.9785C140.066 32.3971 139.299 31.9729 138.409 31.6996C137.521 31.4091 136.547 31.2676 135.492 31.2676H122.34C122.263 31.2676 122.202 31.3284 122.202 31.4036L122.201 51.1518ZM137.846 35.5903L137.849 35.593L137.852 35.5958C138.418 36.0958 138.731 36.8192 138.731 37.8495C138.731 38.9016 138.416 39.6193 137.858 40.0981C137.274 40.5995 136.469 40.8772 135.382 40.8772H126.168C126.092 40.8772 126.03 40.8166 126.03 40.7412V34.9039C126.03 34.8285 126.092 34.7679 126.168 34.7679H135.382C136.461 34.7679 137.261 35.059 137.846 35.5903ZM165.725 46.0072L165.727 46.0048C166.311 44.6423 166.594 43.0529 166.594 41.2508C166.594 39.5172 166.31 37.9647 165.727 36.6049C165.148 35.2554 164.332 34.1145 163.277 33.1913C162.227 32.2723 160.979 31.5791 159.542 31.1076C158.106 30.6361 156.536 30.4038 154.839 30.4038C153.143 30.4038 151.576 30.6263 150.142 31.0785C148.702 31.532 147.451 32.2168 146.4 33.1372C145.344 34.0614 144.529 35.2124 143.95 36.5793C143.366 37.9401 143.083 39.5104 143.083 41.2776C143.083 43.011 143.367 44.556 143.952 45.8992L143.953 45.9019C144.534 47.2164 145.351 48.3297 146.405 49.2332L146.407 49.2351L146.409 49.2371C147.46 50.1183 148.707 50.7821 150.142 51.2342L150.145 51.2354L150.148 51.2362C151.581 51.6687 153.145 51.8818 154.839 51.8818C156.528 51.8818 158.09 51.6785 159.519 51.2661C160.96 50.8682 162.213 50.2299 163.268 49.3449C164.327 48.4569 165.145 47.3406 165.725 46.0072ZM158.093 47.922L158.09 47.9228C157.132 48.2261 156.05 48.3817 154.839 48.3817C153.629 48.3817 152.539 48.2266 151.562 47.9236C150.607 47.6037 149.801 47.1549 149.135 46.5821C148.489 45.9942 147.98 45.2735 147.609 44.4118C147.258 43.5374 147.076 42.5142 147.076 41.3319C147.076 40.0916 147.26 39.0205 147.613 38.1083C147.987 37.1879 148.5 36.4318 149.146 35.8281C149.813 35.2042 150.617 34.7317 151.568 34.4139L151.571 34.4131L151.574 34.4119C152.546 34.076 153.633 33.904 154.838 33.904C156.041 33.904 157.114 34.0842 158.065 34.4351L158.07 34.437L158.076 34.4392C159.045 34.7738 159.846 35.2619 160.493 35.8989L160.498 35.9037L160.503 35.9089C161.168 36.5311 161.68 37.2956 162.035 38.2122L162.037 38.2179L162.04 38.2236C162.41 39.1171 162.601 40.1498 162.601 41.3319C162.601 42.5333 162.409 43.5641 162.041 44.4364L162.04 44.4388L162.039 44.4415C161.687 45.3014 161.178 46.0213 160.514 46.6096C159.87 47.1785 159.068 47.6187 158.093 47.922ZM185.574 49.1373L185.578 49.1362L185.582 49.1354C186.908 48.7758 188.075 48.2134 189.072 47.4429C190.078 46.6665 190.863 45.6783 191.429 44.4888C192.021 43.2818 192.306 41.8727 192.306 40.279V39.9013C192.306 38.5589 192.067 37.3305 191.575 36.2255C191.103 35.1025 190.392 34.1415 189.45 33.3482C188.523 32.5524 187.373 31.9435 186.018 31.5109C184.654 31.0758 183.096 30.8545 181.352 30.836H181.349H178.629H178.626C176.884 30.8542 175.327 31.0756 173.964 31.5098C172.605 31.925 171.446 32.5345 170.501 33.3482C169.559 34.1415 168.84 35.1019 168.349 36.2236L168.348 36.2257L168.347 36.228C167.875 37.3322 167.644 38.5595 167.644 39.9013V40.279C167.644 41.8719 167.92 43.2872 168.492 44.5093L168.494 44.5141L168.496 44.519C169.08 45.7069 169.874 46.6939 170.878 47.4701L170.883 47.4737L170.888 47.4774C171.901 48.2256 173.073 48.7766 174.396 49.1354L174.4 49.1362L174.404 49.1373C175.51 49.4213 176.684 49.578 177.926 49.6099C178.001 49.6118 178.061 49.6722 178.061 49.7462V51.152C178.061 51.2271 178.123 51.288 178.199 51.288H181.779C181.856 51.288 181.917 51.2271 181.917 51.152V49.7462C181.917 49.6722 181.978 49.6118 182.053 49.6099C183.294 49.578 184.468 49.4213 185.574 49.1373ZM186.466 35.7465L186.469 35.749C187.658 36.6987 188.296 38.1138 188.313 40.0918C188.313 41.2957 188.12 42.2604 187.764 43.0099C187.398 43.7809 186.905 44.3906 186.29 44.8528C185.662 45.3249 184.93 45.6712 184.085 45.8882C183.437 46.0411 182.763 46.137 182.061 46.1756C181.983 46.18 181.917 46.1182 181.917 46.0407V34.3873C181.917 34.3095 181.983 34.2473 182.062 34.2523C183.943 34.3672 185.396 34.8805 186.466 35.7465ZM171.637 40.0929C171.637 41.2935 171.83 42.2565 172.184 43.0053C172.569 43.7781 173.072 44.3896 173.688 44.8528C174.316 45.3249 175.048 45.6712 175.892 45.8882C176.541 46.0411 177.215 46.137 177.917 46.1756C177.995 46.18 178.061 46.1182 178.061 46.0407V34.3816C178.061 34.3042 177.995 34.2422 177.917 34.2467C176.032 34.3473 174.569 34.8539 173.482 35.7221C172.293 36.6711 171.655 38.0944 171.637 40.0929ZM213.77 51.2879C213.846 51.2879 213.908 51.227 213.908 51.1518V47.9239C213.908 47.8487 213.846 47.7878 213.77 47.7878H198.421C198.344 47.7878 198.283 47.7268 198.283 47.6517V42.381C198.283 42.3056 198.344 42.2449 198.421 42.2449H210.096C210.173 42.2449 210.235 42.184 210.235 42.1089V38.8807C210.235 38.8055 210.173 38.7446 210.096 38.7446H198.421C198.344 38.7446 198.283 38.6837 198.283 38.6086V34.9037C198.283 34.8283 198.344 34.7676 198.421 34.7676H212.865C212.941 34.7676 213.003 34.7066 213.003 34.6315V31.4032C213.003 31.328 212.941 31.2672 212.865 31.2672H194.592C194.516 31.2672 194.454 31.328 194.454 31.4032V51.1514C194.454 51.2266 194.516 51.2875 194.592 51.2875L213.77 51.2879ZM237.229 44.8322L237.35 44.3101C237.373 44.225 237.306 44.1436 237.218 44.1436H233.436C233.372 44.1436 233.317 44.1849 233.3 44.2445L233.215 44.5611C232.891 45.7538 232.145 46.6995 230.93 47.4061C229.725 48.0974 228.161 48.4625 226.203 48.4625C224.923 48.4625 223.826 48.2815 222.901 47.9344C221.962 47.5644 221.194 47.0666 220.58 46.4462C219.964 45.8226 219.494 45.0831 219.174 44.2204C218.87 43.3512 218.712 42.3987 218.712 41.3587C218.712 40.261 218.87 39.2712 219.177 38.384C219.497 37.4844 219.967 36.7294 220.58 36.1094C221.191 35.4901 221.959 35.0018 222.895 34.6497L222.901 34.6481L222.904 34.6464C223.829 34.2824 224.923 34.0928 226.203 34.0928C227.161 34.0928 228.02 34.2046 228.783 34.4216L228.791 34.4236L228.799 34.4255C229.581 34.6268 230.247 34.9247 230.805 35.3127L230.814 35.3178L230.822 35.323C231.405 35.6992 231.88 36.1536 232.256 36.6863L232.264 36.6945L232.27 36.7021C232.662 37.2188 232.941 37.7901 233.104 38.4209L233.187 38.7414C233.203 38.8016 233.259 38.8438 233.322 38.8438H237.121C237.207 38.8438 237.27 38.7695 237.259 38.6872L237.182 38.197C236.991 36.9439 236.591 35.833 235.977 34.8763C235.367 33.9276 234.579 33.1421 233.618 32.5232C232.678 31.8867 231.571 31.4225 230.314 31.1215C229.073 30.8212 227.7 30.6734 226.203 30.6734C224.434 30.6734 222.837 30.9047 221.417 31.3766C219.997 31.8302 218.784 32.5062 217.784 33.4114C216.784 34.3004 216.024 35.399 215.499 36.697C214.977 37.9981 214.72 39.465 214.72 41.0885V41.5745C214.72 43.1463 214.977 44.578 215.502 45.8604C216.024 47.1405 216.787 48.2366 217.781 49.1412L217.784 49.1434L217.787 49.1453C218.784 50.0312 219.997 50.7058 221.414 51.177C222.835 51.6501 224.434 51.8813 226.203 51.8813C229.103 51.8813 231.535 51.338 233.458 50.2095V50.2085L233.46 50.2073C235.416 49.0392 236.671 47.2288 237.229 44.8322ZM260.251 44.8322L260.373 44.3101C260.395 44.225 260.329 44.1436 260.24 44.1436H256.458C256.394 44.1436 256.339 44.1849 256.323 44.2445L256.237 44.5611C255.914 45.7538 255.168 46.6998 253.952 47.4061C252.747 48.0974 251.184 48.4625 249.225 48.4625C247.946 48.4625 246.849 48.2816 245.923 47.9342C244.984 47.5642 244.216 47.0663 243.603 46.4462C242.986 45.8226 242.517 45.0831 242.196 44.2204C241.89 43.3512 241.735 42.3987 241.735 41.3587C241.735 40.261 241.892 39.2712 242.196 38.384C242.52 37.4844 242.989 36.7294 243.603 36.1094C244.213 35.4901 244.981 35.0018 245.918 34.6497L245.923 34.6481L245.926 34.6464C246.852 34.2824 247.946 34.0928 249.225 34.0928C250.184 34.0928 251.043 34.2046 251.805 34.4216L251.814 34.4236L251.822 34.4255C252.604 34.6268 253.27 34.9247 253.828 35.3127L253.836 35.3178L253.844 35.323C254.424 35.6992 254.902 36.1536 255.278 36.6863L255.284 36.6945L255.292 36.7021C255.684 37.2188 255.963 37.7901 256.126 38.4209L256.209 38.7414C256.226 38.8016 256.281 38.8438 256.345 38.8438H260.143C260.229 38.8438 260.293 38.7695 260.282 38.6872L260.204 38.197C260.014 36.9439 259.613 35.833 259 34.8763C258.389 33.9276 257.602 33.1421 256.64 32.5232C255.701 31.8867 254.593 31.4225 253.333 31.1215C252.093 30.8209 250.722 30.6734 249.225 30.6734C247.457 30.6734 245.86 30.9047 244.44 31.3766C243.02 31.8302 241.807 32.5062 240.807 33.4114C239.806 34.3004 239.047 35.399 238.522 36.697C238 37.9981 237.743 39.465 237.743 41.0885V41.5745C237.743 43.1463 238 44.578 238.525 45.8604C239.047 47.1405 239.806 48.2366 240.804 49.1412L240.807 49.1434L240.809 49.1453C241.807 50.0312 243.02 50.7058 244.437 51.177C245.857 51.6501 247.457 51.8813 249.225 51.8813C252.126 51.8813 254.557 51.338 256.48 50.2095V50.2085L256.483 50.2073C258.439 49.0392 259.69 47.2288 260.251 44.8322ZM278.914 51.2879C278.837 51.2879 278.776 51.227 278.776 51.1518V35.9029C278.776 35.7704 278.602 35.716 278.524 35.8236L267.374 51.2309C267.346 51.2666 267.305 51.2878 267.26 51.2878H262C261.923 51.2878 261.862 51.2269 261.862 51.1517V31.4036C261.862 31.3284 261.923 31.2674 262 31.2674H265.55C265.628 31.2674 265.688 31.3284 265.688 31.4036V46.6285C265.688 46.7608 265.863 46.8152 265.94 46.7074L277.091 31.3246C277.118 31.2887 277.16 31.2676 277.204 31.2676H282.464C282.542 31.2676 282.602 31.3284 282.602 31.4036V51.1518C282.602 51.227 282.542 51.2879 282.464 51.2879H278.914ZM301.566 51.1518C301.566 51.227 301.63 51.2879 301.705 51.2879H305.257C305.335 51.2879 305.396 51.227 305.396 51.1518V31.4036C305.396 31.3284 305.335 31.2676 305.257 31.2676H292.024C290.968 31.2676 289.996 31.4091 289.106 31.6996C288.216 31.9736 287.44 32.3979 286.788 32.9783C286.153 33.5437 285.658 34.2536 285.302 35.0949L285.299 35.1001L285.296 35.1055C284.954 35.9584 284.79 36.9311 284.79 38.0116V38.0214V38.0315C284.849 39.617 285.235 40.938 286.003 41.9404L286.006 41.9433V41.9464C286.614 42.716 287.39 43.3012 288.327 43.706C288.404 43.7393 288.435 43.8304 288.393 43.9018L284.191 51.0569C284.139 51.1475 284.205 51.2609 284.31 51.2609H288.41C288.46 51.2609 288.507 51.2348 288.532 51.1921L292.424 44.4465C292.449 44.404 292.496 44.3775 292.546 44.3775H301.428C301.506 44.3775 301.567 44.4386 301.567 44.5137L301.566 51.1518ZM289.664 35.5958L289.667 35.593L289.67 35.5903C290.255 35.059 291.054 34.7679 292.134 34.7679H301.428C301.506 34.7679 301.566 34.8285 301.566 34.9039V40.7412C301.566 40.8166 301.506 40.8772 301.428 40.8772H292.134C291.046 40.8772 290.241 40.5995 289.659 40.0981C289.1 39.6193 288.783 38.9016 288.783 37.8495C288.783 36.8192 289.098 36.0958 289.664 35.5958Z" fill="url(#paint1_linear_1575_330)"></path> <path d="M100.147 51.2879C100.071 51.2879 100.009 51.227 100.009 51.1518L100.009 34.8183C100.009 34.7432 100.071 34.6823 100.147 34.6823H103.668C103.744 34.6823 103.806 34.6214 103.806 34.5463V31.4036C103.806 31.3284 103.868 31.2676 103.944 31.2676H119.38C119.456 31.2676 119.518 31.3284 119.518 31.4036V51.1518C119.518 51.227 119.456 51.2879 119.38 51.2879H115.827C115.751 51.2879 115.689 51.227 115.689 51.1518V34.9039C115.689 34.8285 115.627 34.7679 115.551 34.7679H103.976C103.9 34.7679 103.838 34.8285 103.838 34.9039V51.1518C103.838 51.227 103.776 51.2879 103.699 51.2879H100.147Z" fill="url(#paint2_linear_1575_330)"></path> <path fill-rule="evenodd" clip-rule="evenodd" d="M270.247 60.5913C270.247 60.5159 270.185 60.4552 270.108 60.4552H261.897C261.821 60.4552 261.759 60.5159 261.759 60.5913V63.8192C261.759 63.8944 261.821 63.9553 261.897 63.9553H270.108C270.185 63.9553 270.247 63.8944 270.247 63.8192V60.5913ZM270.423 64.1657C270.346 64.1657 270.284 64.2265 270.284 64.3016V80.3396C270.284 80.4148 270.346 80.4757 270.423 80.4757H273.975C274.051 80.4757 274.113 80.4148 274.113 80.3396V64.3016C274.113 64.2265 274.051 64.1657 273.975 64.1657H270.423ZM274.244 63.8192C274.244 63.8944 274.306 63.9553 274.383 63.9553H282.528C282.604 63.9553 282.666 63.8944 282.666 63.8192V60.5913C282.666 60.5159 282.604 60.4552 282.528 60.4552H274.383C274.306 60.4552 274.244 60.5159 274.244 60.5913V63.8192ZM256.95 80.4756C256.874 80.4756 256.812 80.4147 256.812 80.3395V65.0903C256.812 64.9577 256.64 64.9036 256.562 65.0113L245.411 80.4184C245.385 80.4543 245.343 80.4755 245.298 80.4755H240.037C239.96 80.4755 239.898 80.4146 239.898 80.3394V60.5911C239.898 60.5157 239.96 60.4551 240.037 60.4551H243.589C243.665 60.4551 243.727 60.5157 243.727 60.5911V75.8163C243.727 75.9485 243.9 76.0029 243.978 75.8952L255.129 60.512C255.155 60.4764 255.197 60.4552 255.242 60.4552H260.503C260.579 60.4552 260.641 60.5159 260.641 60.5913V80.3395C260.641 80.4147 260.579 80.4756 260.503 80.4756H256.95Z" fill="url(#paint3_linear_1575_330)"></path> <path fill-rule="evenodd" clip-rule="evenodd" d="M49.7256 61.1675C49.135 60.586 48.8033 59.7972 48.8035 58.9748L48.8033 34.4954C48.8034 33.3117 47.8288 32.3519 46.6267 32.352L21.7675 32.3518C20.9325 32.3519 20.1314 32.0253 19.5409 31.4439L18.2364 30.1594C17.6459 29.5779 17.3145 28.7892 17.3145 27.9666V5.72905C17.3141 4.90686 17.646 4.1181 18.2365 3.53648L19.5409 2.25205C20.1315 1.67043 20.9324 1.34385 21.7675 1.34375L77.1438 1.34391C78.8827 1.34391 80.2925 2.73218 80.2925 4.44454L80.2926 58.9749C80.2926 59.7974 79.9609 60.586 79.3703 61.1675L78.0659 62.452C77.4753 63.0335 76.6744 63.3602 75.8394 63.3601H53.2569C52.4216 63.3601 51.6206 63.0336 51.03 62.4521L49.7257 61.1676L49.7256 61.1675Z" fill="url(#paint4_linear_1575_330)"></path> <path fill-rule="evenodd" clip-rule="evenodd" d="M21.767 56.8339C21.7669 58.0177 22.7415 58.9773 23.9436 58.9773L40.4556 58.9775C41.0329 58.9774 41.5866 59.2031 41.9947 59.6051L42.8964 60.4931C43.3046 60.895 43.5339 61.4402 43.5339 62.0088V77.3806C43.534 77.9489 43.3046 78.4941 42.8963 78.8961L41.9946 79.784C41.5865 80.1859 41.0329 80.4117 40.4556 80.4118L2.17667 80.4117C0.974593 80.4118 0 79.4521 0 78.2684V40.5742C0.000104446 40.0056 0.229273 39.4605 0.637449 39.0587L1.53924 38.1706C1.94741 37.7688 2.50118 37.5429 3.07825 37.543H18.6886C19.266 37.543 19.8194 37.7686 20.2277 38.1706L21.1294 39.0586C21.5376 39.4605 21.767 40.0058 21.7668 40.5742L21.7669 56.8338L21.767 56.8339Z" fill="url(#paint5_linear_1575_330)"></path> <rect x="100.381" y="68.7832" width="126.754" height="3.33209" rx="0.5" fill="url(#paint6_linear_1575_330)"></rect> <defs> <linearGradient id="paint0_linear_1575_330" x1="144.311" y1="3.12248" x2="120.306" y2="41.684" gradientUnits="userSpaceOnUse"> <stop stop-color="#5D39F5"></stop> <stop offset="1" stop-color="#B328F6"></stop> </linearGradient> <linearGradient id="paint1_linear_1575_330" x1="222.766" y1="33.0507" x2="211.323" y2="83.9846" gradientUnits="userSpaceOnUse"> <stop stop-color="#5D39F5"></stop> <stop offset="1" stop-color="#B328F6"></stop> </linearGradient> <linearGradient id="paint2_linear_1575_330" x1="222.766" y1="33.0507" x2="211.323" y2="83.9846" gradientUnits="userSpaceOnUse"> <stop stop-color="#5D39F5"></stop> <stop offset="1" stop-color="#B328F6"></stop> </linearGradient> <linearGradient id="paint3_linear_1575_330" x1="265.46" y1="62.9224" x2="240.523" y2="87.7178" gradientUnits="userSpaceOnUse"> <stop stop-color="#5D39F5"></stop> <stop offset="1" stop-color="#B328F6"></stop> </linearGradient> <linearGradient id="paint4_linear_1575_330" x1="54.9557" y1="8.98649" x2="-4.73432" y2="37.2016" gradientUnits="userSpaceOnUse"> <stop stop-color="#5D39F5"></stop> <stop offset="1" stop-color="#B328F6"></stop> </linearGradient> <linearGradient id="paint5_linear_1575_330" x1="26.0196" y1="42.826" x2="-15.2412" y2="62.3299" gradientUnits="userSpaceOnUse"> <stop stop-color="#5D39F5"></stop> <stop offset="1" stop-color="#B328F6"></stop> </linearGradient> <linearGradient id="paint6_linear_1575_330" x1="176.14" y1="69.1938" x2="175.673" y2="77.4681" gradientUnits="userSpaceOnUse"> <stop stop-color="#5D39F5"></stop> <stop offset="1" stop-color="#B328F6"></stop> </linearGradient> </defs> </svg> 